<svg id="Layer_1" data-name="Layer 1" xmlns="http://www.w3.org/2000/svg" xmlns:xlink="http://www.w3.org/1999/xlink" viewBox="0 0 421.89 260.4"><defs><style>.cls-1{fill:#fff;}.cls-2{fill:url(#linear-gradient);}.cls-3{fill:url(#linear-gradient-2);}.cls-4{fill:url(#linear-gradient-3);}.cls-5{mask:url(#mask);}.cls-6{fill:url(#linear-gradient-4);}</style><linearGradient id="linear-gradient" x1="-58.86" y1="75.08" x2="372.89" y2="246.77" gradientUnits="userSpaceOnUse"><stop offset="0" stop-color="#043e95"/><stop offset="1" stop-color="#0452c5"/></linearGradient><linearGradient id="linear-gradient-2" x1="-35.2" y1="15.57" x2="396.55" y2="187.26" xlink:href="#linear-gradient"/><linearGradient id="linear-gradient-3" x1="-56.48" y1="69.09" x2="375.27" y2="240.78" xlink:href="#linear-gradient"/><mask id="mask" x="150.53" y="103.19" width="50.23" height="50.23" maskUnits="userSpaceOnUse"><g id="path-1-inside-1_117_503" data-name="path-1-inside-1 117 503"><path class="cls-1" d="M175.64,103.19a25.14,25.14,0,0,0-23.14,15.35,2.1,2.1,0,0,0-.17.74,1.92,1.92,0,0,0,.14.75,1.8,1.8,0,0,0,.41.64,1.91,1.91,0,0,0,.63.43,2.14,2.14,0,0,0,.75.16,1.93,1.93,0,0,0,.75-.15,2.08,2.08,0,0,0,.63-.43,2,2,0,0,0,.42-.64,21.25,21.25,0,0,1,33.22-8,2,2,0,0,0,.66.36,1.91,1.91,0,0,0,.75.08,1.82,1.82,0,0,0,.72-.21,1.9,1.9,0,0,0,1-1.13,1.75,1.75,0,0,0,.08-.75,1.86,1.86,0,0,0-.21-.73,1.89,1.89,0,0,0-.47-.59A25.07,25.07,0,0,0,175.64,103.19Zm0,7.74a17.19,17.19,0,0,0-5.8,1,1.73,1.73,0,0,0-.64.38,2,2,0,0,0-.46.61,1.83,1.83,0,0,0-.18.73,1.69,1.69,0,0,0,.11.74,1.86,1.86,0,0,0,.38.65,2,2,0,0,0,.61.46,2,2,0,0,0,.73.18,1.88,1.88,0,0,0,.74-.11,13.53,13.53,0,0,1,18,12.76c0,5.71-1.91,18.69-1.91,18.69a2,2,0,0,0,0,.78,2,2,0,0,0,.31.7,2,2,0,0,0,.57.53,1.91,1.91,0,0,0,.72.27,2.21,2.21,0,0,0,.77,0,2,2,0,0,0,.7-.34,1.9,1.9,0,0,0,.5-.59,1.85,1.85,0,0,0,.24-.73s2-12.75,2-19.27A17.41,17.41,0,0,0,175.64,110.93Zm20.29,4.3a1.8,1.8,0,0,0-1,.27,1.85,1.85,0,0,0-.69.7,1.89,1.89,0,0,0-.26,1,2,2,0,0,0,.25,1,21.28,21.28,0,0,1,1.72,16.3,1.77,1.77,0,0,0-.1.76,2,2,0,0,0,.21.75,2,2,0,0,0,.48.6,1.94,1.94,0,0,0,.68.36,1.82,1.82,0,0,0,.77.07,1.74,1.74,0,0,0,.73-.23,1.93,1.93,0,0,0,.59-.51,2.12,2.12,0,0,0,.34-.69,25.2,25.2,0,0,0-2-19.27,2,2,0,0,0-.73-.76,1.86,1.86,0,0,0-1-.26Zm-32.56,1.63a2,2,0,0,0-.8.22,2.09,2.09,0,0,0-.64.54,17.38,17.38,0,0,0-3.68,10.7,67,67,0,0,1-1.5,15,2,2,0,0,0-.06.76,1.87,1.87,0,0,0,.75,1.3,1.94,1.94,0,0,0,.69.34,2.16,2.16,0,0,0,.76,0,1.85,1.85,0,0,0,.72-.27,1.89,1.89,0,0,0,.57-.52,1.92,1.92,0,0,0,.31-.7,71.32,71.32,0,0,0,1.63-16A13.43,13.43,0,0,1,165,120a2,2,0,0,0,.41-1,1.92,1.92,0,0,0-.2-1.08,2,2,0,0,0-1.82-1Zm12.27,1.8a9.69,9.69,0,0,0-9.66,9.66c0,13.57-1.87,20.66-1.87,20.66a2,2,0,0,0-.07.77,2.13,2.13,0,0,0,.23.74,2,2,0,0,0,.51.58,1.79,1.79,0,0,0,.69.34,2,2,0,0,0,.77.05,1.9,1.9,0,0,0,.73-.27,1.85,1.85,0,0,0,.56-.52,2,2,0,0,0,.32-.71s2-7.71,2-21.64a5.8,5.8,0,1,1,11.59,0c0,2.32-.09,4.73-.24,7.09a1.91,1.91,0,0,0,.09.75,2,2,0,0,0,.38.66,1.82,1.82,0,0,0,.6.46,1.84,1.84,0,0,0,.73.19,1.75,1.75,0,0,0,.75-.1,1.86,1.86,0,0,0,.65-.38,1.82,1.82,0,0,0,.46-.61,1.79,1.79,0,0,0,.19-.73c.16-2.41.26-4.9.26-7.33A9.69,9.69,0,0,0,175.64,118.66Zm-23.22,6.14a1.9,1.9,0,0,0-1.27.56,1.94,1.94,0,0,0-.57,1.26c0,.57-.05,1.13-.05,1.7a25.23,25.23,0,0,0,.75,6.13,2,2,0,0,0,.32.7,2,2,0,0,0,.56.51,1.83,1.83,0,0,0,.72.26,1.78,1.78,0,0,0,.76,0,1.93,1.93,0,0,0,.68-.32,2,2,0,0,0,.51-.57,2.06,2.06,0,0,0,.25-.72,2,2,0,0,0-.05-.76,21.08,21.08,0,0,1-.64-5.19c0-.48,0-1,.05-1.44a1.92,1.92,0,0,0-1.22-1.95A1.82,1.82,0,0,0,152.42,124.8Zm23.19,1.56a1.93,1.93,0,0,0-1.9,2,121,121,0,0,1-.66,13,1.93,1.93,0,0,0,.06.76,2.07,2.07,0,0,0,.34.68,1.9,1.9,0,0,0,.59.5,2,2,0,0,0,.72.23,1.93,1.93,0,0,0,.76-.07,2.11,2.11,0,0,0,.68-.36,2,2,0,0,0,.48-.59,2.12,2.12,0,0,0,.22-.73,126.68,126.68,0,0,0,.67-13.43,1.92,1.92,0,0,0-.14-.75,1.85,1.85,0,0,0-.43-.64,2,2,0,0,0-.64-.43,2.12,2.12,0,0,0-.75-.14Zm6.71,16a2,2,0,0,0-1.3.49,2,2,0,0,0-.63,1.24c-.44,3.87-.86,6.49-.86,6.49a1.77,1.77,0,0,0,0,.76,2,2,0,0,0,.87,1.2,2,2,0,0,0,.71.26,1.89,1.89,0,0,0,.75,0,1.86,1.86,0,0,0,1.2-.87,1.89,1.89,0,0,0,.26-.71s.44-2.7.89-6.65a1.85,1.85,0,0,0-.06-.81,1.9,1.9,0,0,0-1.06-1.2,1.81,1.81,0,0,0-.79-.17Zm-8.56,5.11a1.92,1.92,0,0,0-1.9,1.54c-.29,1.35-.48,1.94-.48,1.94a1.75,1.75,0,0,0-.08.75,1.86,1.86,0,0,0,.21.73,1.89,1.89,0,0,0,.47.59,1.85,1.85,0,0,0,.66.36,1.74,1.74,0,0,0,.75.08,1.86,1.86,0,0,0,.73-.21,2,2,0,0,0,.58-.47,2,2,0,0,0,.37-.67s.25-.81.57-2.27a2.08,2.08,0,0,0,0-.86,2,2,0,0,0-.37-.78,2,2,0,0,0-.67-.54,1.91,1.91,0,0,0-.84-.19Z"/></g></mask><linearGradient id="linear-gradient-4" x1="-45.14" y1="40.58" x2="386.61" y2="212.27" xlink:href="#linear-gradient"/></defs><path class="cls-2" d="M63.42,103.49V50.81h96.09V0H0V260.4H159.51V209.59H63.42V152.44"/><path class="cls-3" d="M405,62.15a116.49,116.49,0,0,0-47.69-45.81Q326.54,0,285.39,0H187.82V51.18H283a79.28,79.28,0,1,1,0,158.56H187.82V260.4h97.57q40.8,0,71.75-16.34A116.05,116.05,0,0,0,405,198.12q16.8-29.72,16.87-67.89Q421.89,91.62,405,62.15Z"/><rect class="cls-4" x="61.97" y="103.37" width="59.89" height="49.46"/><g class="cls-5"><path class="cls-6" d="M175.64,103.19a25.14,25.14,0,0,0-23.14,15.35,2.1,2.1,0,0,0-.17.74,1.92,1.92,0,0,0,.14.75,1.8,1.8,0,0,0,.41.64,1.91,1.91,0,0,0,.63.43,2.14,2.14,0,0,0,.75.16,1.93,1.93,0,0,0,.75-.15,2.08,2.08,0,0,0,.63-.43,2,2,0,0,0,.42-.64,21.25,21.25,0,0,1,33.22-8,2,2,0,0,0,.66.36,1.91,1.91,0,0,0,.75.08,1.82,1.82,0,0,0,.72-.21,1.9,1.9,0,0,0,1-1.13,1.75,1.75,0,0,0,.08-.75,1.86,1.86,0,0,0-.21-.73,1.89,1.89,0,0,0-.47-.59A25.07,25.07,0,0,0,175.64,103.19Zm0,7.74a17.19,17.19,0,0,0-5.8,1,1.73,1.73,0,0,0-.64.38,2,2,0,0,0-.46.61,1.83,1.83,0,0,0-.18.73,1.69,1.69,0,0,0,.11.74,1.86,1.86,0,0,0,.38.65,2,2,0,0,0,.61.46,2,2,0,0,0,.73.18,1.88,1.88,0,0,0,.74-.11,13.53,13.53,0,0,1,18,12.76c0,5.71-1.91,18.69-1.91,18.69a2,2,0,0,0,0,.78,2,2,0,0,0,.31.7,2,2,0,0,0,.57.53,1.91,1.91,0,0,0,.72.27,2.21,2.21,0,0,0,.77,0,2,2,0,0,0,.7-.34,1.9,1.9,0,0,0,.5-.59,1.85,1.85,0,0,0,.24-.73s2-12.75,2-19.27A17.41,17.41,0,0,0,175.64,110.93Zm20.29,4.3a1.8,1.8,0,0,0-1,.27,1.85,1.85,0,0,0-.69.7,1.89,1.89,0,0,0-.26,1,2,2,0,0,0,.25,1,21.28,21.28,0,0,1,1.72,16.3,1.77,1.77,0,0,0-.1.76,2,2,0,0,0,.21.75,2,2,0,0,0,.48.6,1.94,1.94,0,0,0,.68.36,1.82,1.82,0,0,0,.77.07,1.74,1.74,0,0,0,.73-.23,1.93,1.93,0,0,0,.59-.51,2.12,2.12,0,0,0,.34-.69,25.2,25.2,0,0,0-2-19.27,2,2,0,0,0-.73-.76,1.86,1.86,0,0,0-1-.26Zm-32.56,1.63a2,2,0,0,0-.8.22,2.09,2.09,0,0,0-.64.54,17.38,17.38,0,0,0-3.68,10.7,67,67,0,0,1-1.5,15,2,2,0,0,0-.06.76,1.87,1.87,0,0,0,.75,1.3,1.94,1.94,0,0,0,.69.34,2.16,2.16,0,0,0,.76,0,1.85,1.85,0,0,0,.72-.27,1.89,1.89,0,0,0,.57-.52,1.92,1.92,0,0,0,.31-.7,71.32,71.32,0,0,0,1.63-16A13.43,13.43,0,0,1,165,120a2,2,0,0,0,.41-1,1.92,1.92,0,0,0-.2-1.08,2,2,0,0,0-1.82-1Zm12.27,1.8a9.69,9.69,0,0,0-9.66,9.66c0,13.57-1.87,20.66-1.87,20.66a2,2,0,0,0-.07.77,2.13,2.13,0,0,0,.23.74,2,2,0,0,0,.51.58,1.79,1.79,0,0,0,.69.34,2,2,0,0,0,.77.05,1.9,1.9,0,0,0,.73-.27,1.85,1.85,0,0,0,.56-.52,2,2,0,0,0,.32-.71s2-7.71,2-21.64a5.8,5.8,0,1,1,11.59,0c0,2.32-.09,4.73-.24,7.09a1.91,1.91,0,0,0,.09.75,2,2,0,0,0,.38.66,1.82,1.82,0,0,0,.6.46,1.84,1.84,0,0,0,.73.19,1.75,1.75,0,0,0,.75-.1,1.86,1.86,0,0,0,.65-.38,1.82,1.82,0,0,0,.46-.61,1.79,1.79,0,0,0,.19-.73c.16-2.41.26-4.9.26-7.33A9.69,9.69,0,0,0,175.64,118.66Zm-23.22,6.14a1.9,1.9,0,0,0-1.27.56,1.94,1.94,0,0,0-.57,1.26c0,.57-.05,1.13-.05,1.7a25.23,25.23,0,0,0,.75,6.13,2,2,0,0,0,.32.7,2,2,0,0,0,.56.51,1.83,1.83,0,0,0,.72.26,1.78,1.78,0,0,0,.76,0,1.93,1.93,0,0,0,.68-.32,2,2,0,0,0,.51-.57,2.06,2.06,0,0,0,.25-.72,2,2,0,0,0-.05-.76,21.08,21.08,0,0,1-.64-5.19c0-.48,0-1,.05-1.44a1.92,1.92,0,0,0-1.22-1.95A1.82,1.82,0,0,0,152.42,124.8Zm23.19,1.56a1.93,1.93,0,0,0-1.9,2,121,121,0,0,1-.66,13,1.93,1.93,0,0,0,.06.76,2.07,2.07,0,0,0,.34.68,1.9,1.9,0,0,0,.59.5,2,2,0,0,0,.72.23,1.93,1.93,0,0,0,.76-.07,2.11,2.11,0,0,0,.68-.36,2,2,0,0,0,.48-.59,2.12,2.12,0,0,0,.22-.73,126.68,126.68,0,0,0,.67-13.43,1.92,1.92,0,0,0-.14-.75,1.85,1.85,0,0,0-.43-.64,2,2,0,0,0-.64-.43,2.12,2.12,0,0,0-.75-.14Zm6.71,16a2,2,0,0,0-1.3.49,2,2,0,0,0-.63,1.24c-.44,3.87-.86,6.49-.86,6.49a1.77,1.77,0,0,0,0,.76,2,2,0,0,0,.87,1.2,2,2,0,0,0,.71.26,1.89,1.89,0,0,0,.75,0,1.86,1.86,0,0,0,1.2-.87,1.89,1.89,0,0,0,.26-.71s.44-2.7.89-6.65a1.85,1.85,0,0,0-.06-.81,1.9,1.9,0,0,0-1.06-1.2,1.81,1.81,0,0,0-.79-.17Zm-8.56,5.11a1.92,1.92,0,0,0-1.9,1.54c-.29,1.35-.48,1.94-.48,1.94a1.75,1.75,0,0,0-.08.75,1.86,1.86,0,0,0,.21.73,1.89,1.89,0,0,0,.47.59,1.85,1.85,0,0,0,.66.36,1.74,1.74,0,0,0,.75.08,1.86,1.86,0,0,0,.73-.21,2,2,0,0,0,.58-.47,2,2,0,0,0,.37-.67s.25-.81.57-2.27a2.08,2.08,0,0,0,0-.86,2,2,0,0,0-.37-.78,2,2,0,0,0-.67-.54,1.91,1.91,0,0,0-.84-.19Z"/></g></svg>